<svg width="256" height="256" viewBox="0 0 256 256" fill="none" xmlns="http://www.w3.org/2000/svg">
<circle cx="128" cy="144" r="112" fill="black"/>
<g clip-path="url(#clip0_1103_1031)">
<path d="M111.484 115.214L111.472 94.1202C111.472 92.8647 110.974 91.6601 110.085 90.7717L91.8239 72.4756L79.0839 86.5311L108.857 116.303C109.827 117.273 111.486 116.584 111.486 115.213L111.484 115.214Z" fill="url(#paint0_linear_1103_1031)"/>
<path d="M71.1439 166.071L35.2567 130.262L22.4313 144.194L69.9048 191.622C70.875 192.59 72.5321 191.903 72.5321 190.532V169.421C72.5321 168.164 72.0324 166.959 71.1439 166.071V166.071Z" fill="url(#paint1_linear_1103_1031)"/>
<path d="M118.95 0.779601C54.5393 5.22917 3.06314 58.544 0.63759 123.062C-1.72982 186.055 41.5885 239.354 100.074 252.428L22.1023 174.445C20.985 173.328 20.3581 171.811 20.3618 170.23L20.4199 145.037C20.4217 143.985 21.6954 143.458 22.4385 144.203L35.2639 130.271C34.459 129.466 34.459 128.16 35.2639 127.357L47.6006 115.049C48.4055 114.246 49.7082 114.248 50.5113 115.049L92.1907 156.729C93.9622 158.5 94.9561 160.902 94.9561 163.406V206.893C94.9561 213.158 97.4452 219.166 101.875 223.596L133.654 255.375C141.726 255.03 149.595 253.925 157.205 252.141L116.946 211.87C114.955 209.878 113.835 207.177 113.835 204.36V162.336C113.835 155.446 111.099 148.838 106.226 143.967L63.9235 101.664C63.1187 100.859 63.1187 99.5531 63.9254 98.7482L76.1767 86.5351C76.9815 85.732 78.2843 85.7338 79.0873 86.5369L91.8274 72.4814C91.5894 72.2089 91.3641 71.9109 91.1388 71.602C87.5013 66.6928 85.2902 58.5967 87.8684 49.4668C89.4127 43.6219 92.6195 39.2141 98.5317 33.8579C99.0513 33.3874 99.8708 33.3637 100.399 33.8216L115.712 47.0885L118.728 49.7067C119.887 50.7114 121.272 51.4236 122.764 51.7779L170.506 63.1262C171.064 63.257 171.576 63.5423 171.98 63.9348L221.019 112.856C221.875 113.676 222.362 114.819 222.362 116.007V126.409C222.362 128.007 221.959 129.583 221.188 130.983L196.92 175.199C195.863 177.136 193.495 177.946 191.475 177.065L180.288 172.191H139.404C136.777 172.191 134.65 174.32 134.65 176.945V195.174C134.65 197.683 135.642 200.093 137.41 201.873L179.754 244.541C224.348 224.688 255.448 179.963 255.448 127.975C255.448 54.5523 193.426 -4.37129 118.943 0.77415L118.95 0.779601Z" fill="#F5FF80"/>
</g>
<defs>
<linearGradient id="paint0_linear_1103_1031" x1="111.79" y1="94.7779" x2="91.1462" y2="94.4709" gradientUnits="userSpaceOnUse">
<stop stop-color="#F5FF80" stop-opacity="0"/>
<stop offset="1" stop-color="#F5FF80"/>
</linearGradient>
<linearGradient id="paint1_linear_1103_1031" x1="72.0996" y1="161.167" x2="46.3761" y2="161.167" gradientUnits="userSpaceOnUse">
<stop stop-color="#F5FF80" stop-opacity="0"/>
<stop offset="0.96" stop-color="#F5FF80"/>
</linearGradient>
<clipPath id="clip0_1103_1031">
<rect width="256" height="256" rx="81.0811" fill="white"/>
</clipPath>
</defs>
</svg>
